# xmcd CD database file
#
# Track frame offsets:
#	150
#	26081
#	54860
#	94553
#	120268
#	152399
#	181543
#	195796
#	221160
#	257396
#	294916
#
# Disc length: 4290 seconds
#
# Revision: 0
# Processed by: cddbd v1.5.2PL0 Copyright (c) Steve Scherf et al.
# Submitted via: CDex 1.70beta2
#
DISCID=7810c00b
DTITLE=Marc Demuth - ORKI
DYEAR=2008
DGENRE=Jazz
TTITLE0=Mayo
TTITLE1=No Ar
TTITLE2=Felicidade
TTITLE3=Changing
TTITLE4=Ourique
TTITLE5=Galia
TTITLE6=Going To
TTITLE7=Paredes
TTITLE8=Vera Cruz
TTITLE9=Samba em Preludio
TTITLE10=Carinhoso
EXTD=YEAR: 2008
EXTT0=
EXTT1=
EXTT2=
EXTT3=
EXTT4=
EXTT5=
EXTT6=
EXTT7=
EXTT8=
EXTT9=
EXTT10=
PLAYORDER=
